# xmcd
#
# Track frame offsets:
#	180
#	24737
#	42607
#	60506
#	72887
#	95015
#	107840
#	119482
#	131729
#	145182
#	156513
#	179797
#	186290
#	200585
#	222190
#	235844
#	275383
#	294445
#	314661
#
# Disc length: 4475 seconds
#
# Revision: 1
# Processed by: cddbd v1.5.2PL0 Copyright (c) Steve Scherf et al.
# Submitted via: audiograbber 1.83.01
#
DISCID=37117913
DTITLE=Various Artist - Deacon's Blues #1
DYEAR=1900
DGENRE=Blues
TTITLE0=BB King - The Thrill Is Gone
TTITLE1=Robert Cray - I Wonder
TTITLE2=Stevie Ray Vaughn - Cold Shot
TTITLE3=Bo Diddley - I'm A Man
TTITLE4=George Thorougood - Bad To The Bone
TTITLE5=Muddy Waters - Got My Mojo Working
TTITLE6=Little Walter - My Babe
TTITLE7=Error - Error
TTITLE8=Etta James - At Last
TTITLE9=John Lee Hooker - Boom, Boom, Boom
TTITLE10=Albert Collins - Mr. Collins, Mr. Collins
TTITLE11=Blank - Blank
TTITLE12=Lowell Fulson - Reconsider Baby
TTITLE13=Eric Clapton - Five Long Years
TTITLE14=Eric Clapton - I'm Tore Down
TTITLE15=Allman Brothers - Stormy Monday
TTITLE16=Janice Joplin - Piece Of My Heart
TTITLE17=The Animals - House Of The Rising Sun
TTITLE18=Creedance Clearwater Revival - Susie Q
EXTD=
EXTT0=
EXTT1=
EXTT2=
EXTT3=
EXTT4=
EXTT5=
EXTT6=
EXTT7=
EXTT8=
EXTT9=
EXTT10=
EXTT11=
EXTT12=
EXTT13=
EXTT14=
EXTT15=
EXTT16=
EXTT17=
EXTT18=
PLAYORDER=
